<?xml version="1.0" encoding="UTF-8" standalone="no"?>
<!-- Created with Inkscape (http://www.inkscape.org/) -->

<svg
   width="240"
   height="240"
   viewBox="0 0 240 240"
   version="1.1"
   id="svg1"
   inkscape:version="1.4 (e7c3feb100, 2024-10-09)"
   sodipodi:docname="settings.svg"
   inkscape:export-filename="pause.png"
   inkscape:export-xdpi="96"
   inkscape:export-ydpi="96"
   xml:space="preserve"
   xmlns:inkscape="http://www.inkscape.org/namespaces/inkscape"
   xmlns:sodipodi="http://sodipodi.sourceforge.net/DTD/sodipodi-0.dtd"
   xmlns="http://www.w3.org/2000/svg"
   xmlns:svg="http://www.w3.org/2000/svg"><sodipodi:namedview
     id="namedview1"
     pagecolor="#000000"
     bordercolor="#999999"
     borderopacity="1"
     inkscape:showpageshadow="false"
     inkscape:pageopacity="0"
     inkscape:pagecheckerboard="false"
     inkscape:deskcolor="#d1d1d1"
     inkscape:document-units="mm"
     borderlayer="true"
     showgrid="true"
     inkscape:zoom="3.0488524"
     inkscape:cx="79.046136"
     inkscape:cy="155.14034"
     inkscape:window-width="2496"
     inkscape:window-height="1412"
     inkscape:window-x="1984"
     inkscape:window-y="0"
     inkscape:window-maximized="1"
     inkscape:current-layer="layer1"
     inkscape:export-bgcolor="#000000ff"><inkscape:grid
       id="grid1"
       units="px"
       originx="0"
       originy="0"
       spacingx="1"
       spacingy="1"
       empcolor="#0099e5"
       empopacity="0.30196078"
       color="#0099e5"
       opacity="0.14901961"
       empspacing="5"
       enabled="true"
       visible="true"
       dotted="false" /></sodipodi:namedview><defs
     id="defs1"><filter
       inkscape:collect="always"
       style="color-interpolation-filters:sRGB"
       id="filter1"
       x="-0.011068652"
       y="-0.013102481"
       width="1.0221373"
       height="1.026205"><feGaussianBlur
         inkscape:collect="always"
         stdDeviation="0.86278122"
         id="feGaussianBlur1" /></filter></defs><g
     inkscape:label="Calque 1"
     inkscape:groupmode="layer"
     id="layer1"><path
       style="fill:#ffffff;filter:url(#filter1)"
       d="m 66.07254,199.34022 c -4.49885,-0.90301 -8.31751,-3.70708 -10.71305,-7.86665 -0.92631,-1.60845 -1.93284,-5.37945 -1.9259,-7.21545 0.008,-2.06847 0.77203,-5.21391 1.77184,-7.29284 0.841,-1.7487 4.48252,-5.46986 48.9247,-49.99466 l 48.01606,-48.10534 -0.35346,-1.59866 c -0.57132,-2.58398 -0.48947,-9.02972 0.15132,-11.91734 2.99383,-13.49115 14.27066,-23.02505 28.06982,-23.73135 2.90543,-0.14871 8.62948,0.43594 9.12563,0.93209 0.079,0.079 -3.0074,3.31185 -6.85867,7.18411 -8.18382,8.22844 -8.60798,8.86768 -9.49342,14.30715 -0.0781,0.4796 -0.0188,1.9184 0.13176,3.19734 0.78479,6.66717 6.13203,12.034 12.92865,12.97602 1.94929,0.27017 2.73564,0.24589 4.65067,-0.14363 4.29981,-0.87459 5.3003,-1.58358 13.09636,-9.28062 l 7.01297,-6.9239 0.39903,1.97673 c 0.63302,3.13587 0.50306,9.86424 -0.24868,12.87673 -1.33619,5.35446 -3.83993,9.88506 -7.60355,13.75886 -4.01524,4.13278 -7.65767,6.37652 -12.97728,7.99399 -4.98191,1.5148 -8.40851,1.72561 -14.04072,0.8638 l -2.13325,-0.32642 -48.00674,47.97964 c -43.03912,43.01482 -48.19443,48.07283 -49.82043,48.88023 -3.16524,1.57171 -6.89439,2.11433 -10.10366,1.47017 z m 4.67058,-9.43111 c 2.48635,-0.74038 4.07382,-2.68085 4.39218,-5.36884 0.35052,-2.95961 -2.04842,-6.03554 -5.11064,-6.5529 -1.51029,-0.25516 -3.53714,0.31816 -4.79748,1.35703 -1.48607,1.22495 -2.20664,2.77444 -2.20664,4.74507 0,3.06899 1.89451,5.35956 4.94133,5.97435 0.55954,0.1129 1.0917,0.22032 1.18258,0.2387 0.0909,0.0184 0.81028,-0.15865 1.59867,-0.39341 z m 108.18995,9.27678 c -4.18805,-1.01532 -3.46134,-0.37079 -27.62804,-24.50343 l -22.31417,-22.28272 10.97818,-10.97086 10.97818,-10.97087 22.28061,22.30897 c 24.23942,24.27027 23.49436,23.42672 24.51509,27.75599 2.63161,11.16156 -7.65452,21.36734 -18.80985,18.66292 z M 90.05254,105.33141 C 76.31194,91.61015 75.24384,90.61222 73.33921,89.71597 c -1.79733,-0.84575 -2.32287,-0.95805 -4.50534,-0.96273 -2.16737,-0.005 -2.70259,0.10513 -4.36,0.89419 -3.6316,1.72895 -5.79214,4.82187 -6.03735,8.64279 -0.0736,1.14695 0.011,2.60835 0.18795,3.24755 l 0.32179,1.16218 -6.32065,6.32231 -6.32065,6.32231 -10.98457,-10.98742 -10.98456,-10.98741 6.28564,-6.2349 c 4.15285,-4.11934 6.45031,-6.19771 6.77102,-6.1253 0.26696,0.0603 1.66259,0.12567 3.10139,0.14533 2.26979,0.031 2.83432,-0.0666 4.26558,-0.73755 4.89578,-2.29505 7.16126,-7.19052 5.85818,-12.65892 -0.12757,-0.53533 1.17678,-1.96215 7.79619,-8.5282 10.00896,-9.92829 12.8644,-12.13415 18.98958,-14.66968 11.02563,-4.56407 23.92143,-3.83577 34.38835,1.9421 l 2.15484,1.18949 -2.35404,2.36633 -2.35403,2.36633 -2.68966,-0.19775 c -5.05598,-0.37174 -10.98111,0.46135 -15.91499,2.2377 -4.71313,1.69687 -10.5017,5.18865 -13.22505,7.9776 l -1.14837,1.17605 21.13871,21.1402 c 11.62629,11.62711 21.13871,21.27171 21.13871,21.43244 0,0.28728 -13.3842,13.80608 -13.6636,13.80101 -0.0787,-10e-4 -6.74846,-6.5987 -14.82174,-14.66061 z"
       id="path1" /></g></svg>
